<mxfile host="Electron" modified="2024-02-28T08:45:37.386Z" agent="Mozilla/5.0 (Windows NT 10.0; Win64; x64) AppleWebKit/537.36 (KHTML, like Gecko) draw.io/22.1.21 Chrome/120.0.6099.109 Electron/28.1.0 Safari/537.36" etag="KEol8bUaFjK7y-tKhDhM" version="22.1.21" type="device">
  <diagram name="PÃ¡gina-1" id="PbwczRMcwZNXwZQuOGkX">
    <mxGraphModel dx="1674" dy="884" grid="1" gridSize="10" guides="1" tooltips="1" connect="1" arrows="1" fold="1" page="1" pageScale="1" pageWidth="827" pageHeight="1169" math="0" shadow="0">
      <root>
        <mxCell id="0" />
        <mxCell id="1" parent="0" />
        <mxCell id="8HSuZqp-KUWC7534ZuB--1" value="" style="shape=umlLifeline;perimeter=lifelinePerimeter;whiteSpace=wrap;html=1;container=1;dropTarget=0;collapsible=0;recursiveResize=0;outlineConnect=0;portConstraint=eastwest;newEdgeStyle={&quot;curved&quot;:0,&quot;rounded&quot;:0};participant=umlActor;" parent="1" vertex="1">
          <mxGeometry x="170" y="180" width="20" height="490" as="geometry" />
        </mxCell>
        <mxCell id="8HSuZqp-KUWC7534ZuB--16" value="" style="html=1;points=[[0,0,0,0,5],[0,1,0,0,-5],[1,0,0,0,5],[1,1,0,0,-5]];perimeter=orthogonalPerimeter;outlineConnect=0;targetShapes=umlLifeline;portConstraint=eastwest;newEdgeStyle={&quot;curved&quot;:0,&quot;rounded&quot;:0};" parent="8HSuZqp-KUWC7534ZuB--1" vertex="1">
          <mxGeometry x="5" y="68" width="10" height="382" as="geometry" />
        </mxCell>
        <mxCell id="8HSuZqp-KUWC7534ZuB--2" value="I" style="shape=umlLifeline;perimeter=lifelinePerimeter;whiteSpace=wrap;html=1;container=1;dropTarget=0;collapsible=0;recursiveResize=0;outlineConnect=0;portConstraint=eastwest;newEdgeStyle={&quot;curved&quot;:0,&quot;rounded&quot;:0};participant=umlBoundary;" parent="1" vertex="1">
          <mxGeometry x="510" y="160" width="50" height="510" as="geometry" />
        </mxCell>
        <mxCell id="8HSuZqp-KUWC7534ZuB--18" value="" style="html=1;points=[[0,0,0,0,5],[0,1,0,0,-5],[1,0,0,0,5],[1,1,0,0,-5]];perimeter=orthogonalPerimeter;outlineConnect=0;targetShapes=umlLifeline;portConstraint=eastwest;newEdgeStyle={&quot;curved&quot;:0,&quot;rounded&quot;:0};" parent="8HSuZqp-KUWC7534ZuB--2" vertex="1">
          <mxGeometry x="20" y="88" width="10" height="382" as="geometry" />
        </mxCell>
        <mxCell id="8HSuZqp-KUWC7534ZuB--3" value="" style="html=1;verticalAlign=bottom;endArrow=block;curved=0;rounded=0;" parent="1" target="8HSuZqp-KUWC7534ZuB--1" edge="1">
          <mxGeometry width="80" relative="1" as="geometry">
            <mxPoint x="530" y="268" as="sourcePoint" />
            <mxPoint x="390" y="268" as="targetPoint" />
          </mxGeometry>
        </mxCell>
        <mxCell id="8HSuZqp-KUWC7534ZuB--4" value="datos()" style="text;html=1;align=center;verticalAlign=middle;resizable=0;points=[];autosize=1;strokeColor=none;fillColor=none;" parent="1" vertex="1">
          <mxGeometry x="325" y="238" width="60" height="30" as="geometry" />
        </mxCell>
        <mxCell id="8HSuZqp-KUWC7534ZuB--5" value="C" style="shape=umlLifeline;perimeter=lifelinePerimeter;whiteSpace=wrap;html=1;container=1;dropTarget=0;collapsible=0;recursiveResize=0;outlineConnect=0;portConstraint=eastwest;newEdgeStyle={&quot;curved&quot;:0,&quot;rounded&quot;:0};participant=umlBoundary;" parent="1" vertex="1">
          <mxGeometry x="810" y="170" width="50" height="500" as="geometry" />
        </mxCell>
        <mxCell id="8HSuZqp-KUWC7534ZuB--19" value="" style="html=1;points=[[0,0,0,0,5],[0,1,0,0,-5],[1,0,0,0,5],[1,1,0,0,-5]];perimeter=orthogonalPerimeter;outlineConnect=0;targetShapes=umlLifeline;portConstraint=eastwest;newEdgeStyle={&quot;curved&quot;:0,&quot;rounded&quot;:0};" parent="8HSuZqp-KUWC7534ZuB--5" vertex="1">
          <mxGeometry x="20" y="150" width="10" height="220" as="geometry" />
        </mxCell>
        <mxCell id="8HSuZqp-KUWC7534ZuB--6" value="E" style="shape=umlLifeline;perimeter=lifelinePerimeter;whiteSpace=wrap;html=1;container=1;dropTarget=0;collapsible=0;recursiveResize=0;outlineConnect=0;portConstraint=eastwest;newEdgeStyle={&quot;curved&quot;:0,&quot;rounded&quot;:0};participant=umlBoundary;" parent="1" vertex="1">
          <mxGeometry x="1060" y="170" width="50" height="510" as="geometry" />
        </mxCell>
        <mxCell id="8HSuZqp-KUWC7534ZuB--20" value="" style="html=1;points=[[0,0,0,0,5],[0,1,0,0,-5],[1,0,0,0,5],[1,1,0,0,-5]];perimeter=orthogonalPerimeter;outlineConnect=0;targetShapes=umlLifeline;portConstraint=eastwest;newEdgeStyle={&quot;curved&quot;:0,&quot;rounded&quot;:0};" parent="8HSuZqp-KUWC7534ZuB--6" vertex="1">
          <mxGeometry x="20" y="240" width="10" height="110" as="geometry" />
        </mxCell>
        <mxCell id="8HSuZqp-KUWC7534ZuB--8" value="buscaPro()" style="html=1;verticalAlign=bottom;endArrow=block;curved=0;rounded=0;" parent="1" edge="1">
          <mxGeometry width="80" relative="1" as="geometry">
            <mxPoint x="530" y="340" as="sourcePoint" />
            <mxPoint x="834.5" y="340" as="targetPoint" />
          </mxGeometry>
        </mxCell>
        <mxCell id="8HSuZqp-KUWC7534ZuB--9" value="" style="endArrow=block;dashed=1;endFill=0;endSize=12;html=1;rounded=0;" parent="1" target="8HSuZqp-KUWC7534ZuB--2" edge="1">
          <mxGeometry width="160" relative="1" as="geometry">
            <mxPoint x="180" y="320" as="sourcePoint" />
            <mxPoint x="340" y="320" as="targetPoint" />
          </mxGeometry>
        </mxCell>
        <mxCell id="8HSuZqp-KUWC7534ZuB--10" value="criteriosBusq" style="text;html=1;align=center;verticalAlign=middle;resizable=0;points=[];autosize=1;strokeColor=none;fillColor=none;" parent="1" vertex="1">
          <mxGeometry x="305" y="298" width="90" height="30" as="geometry" />
        </mxCell>
        <mxCell id="8HSuZqp-KUWC7534ZuB--11" value="productos" style="html=1;verticalAlign=bottom;endArrow=open;dashed=1;endSize=8;curved=0;rounded=0;" parent="1" edge="1">
          <mxGeometry relative="1" as="geometry">
            <mxPoint x="530.25" y="570" as="sourcePoint" />
            <mxPoint x="179.75" y="570" as="targetPoint" />
          </mxGeometry>
        </mxCell>
        <mxCell id="8HSuZqp-KUWC7534ZuB--12" value="no hay" style="html=1;verticalAlign=bottom;endArrow=open;dashed=1;endSize=8;curved=0;rounded=0;" parent="1" edge="1">
          <mxGeometry relative="1" as="geometry">
            <mxPoint x="530.25" y="620" as="sourcePoint" />
            <mxPoint x="180.25" y="620" as="targetPoint" />
          </mxGeometry>
        </mxCell>
        <mxCell id="8HSuZqp-KUWC7534ZuB--13" value="buscaPro()" style="html=1;verticalAlign=bottom;endArrow=block;curved=0;rounded=0;" parent="1" source="8HSuZqp-KUWC7534ZuB--19" target="8HSuZqp-KUWC7534ZuB--6" edge="1">
          <mxGeometry width="80" relative="1" as="geometry">
            <mxPoint x="840" y="350" as="sourcePoint" />
            <mxPoint x="1080" y="350" as="targetPoint" />
          </mxGeometry>
        </mxCell>
        <mxCell id="8HSuZqp-KUWC7534ZuB--14" value="" style="html=1;verticalAlign=bottom;endArrow=open;dashed=1;endSize=8;curved=0;rounded=0;" parent="1" source="8HSuZqp-KUWC7534ZuB--5" edge="1">
          <mxGeometry relative="1" as="geometry">
            <mxPoint x="610" y="530" as="sourcePoint" />
            <mxPoint x="530" y="530" as="targetPoint" />
          </mxGeometry>
        </mxCell>
        <mxCell id="8HSuZqp-KUWC7534ZuB--15" value="" style="html=1;verticalAlign=bottom;endArrow=open;dashed=1;endSize=8;curved=0;rounded=0;" parent="1" source="8HSuZqp-KUWC7534ZuB--6" edge="1">
          <mxGeometry relative="1" as="geometry">
            <mxPoint x="1040" y="570" as="sourcePoint" />
            <mxPoint x="840" y="494.5" as="targetPoint" />
          </mxGeometry>
        </mxCell>
        <mxCell id="8HSuZqp-KUWC7534ZuB--17" value="at" style="shape=umlFrame;whiteSpace=wrap;html=1;pointerEvents=0;" parent="1" vertex="1">
          <mxGeometry x="140" y="550" width="410" height="110" as="geometry" />
        </mxCell>
      </root>
    </mxGraphModel>
  </diagram>
</mxfile>
